<?xml version="1.0" encoding="utf-8"?>
<!-- Generator: Adobe Illustrator 21.1.0, SVG Export Plug-In . SVG Version: 6.00 Build 0)  -->
<svg version="1.1" id="icons" xmlns="http://www.w3.org/2000/svg" xmlns:xlink="http://www.w3.org/1999/xlink" x="0px" y="0px"
	 viewBox="0 0 48.1 43" style="enable-background:new 0 0 48.1 43;" xml:space="preserve">
<style type="text/css">
	.st0{fill:#4395B4;}
</style>
<g>
	<rect x="0.2" y="31" class="st0" width="48" height="2"/>
</g>
<g>
	<g>
		<rect x="12.2" y="36" class="st0" width="8" height="2"/>
	</g>
	<g>
		<rect x="12.2" y="41" class="st0" width="8" height="2"/>
	</g>
	<g>
		<rect x="26.2" y="36" class="st0" width="10" height="2"/>
	</g>
	<g>
		<rect x="26.2" y="41" class="st0" width="10" height="2"/>
	</g>
</g>
<g>
	<path class="st0" d="M25.7,25h-23c-0.4,0-0.7-0.2-0.9-0.6c-0.2-0.4-0.1-0.8,0.2-1.1l20-23C22.2,0.1,22.4,0,22.7,0h23
		c0.4,0,0.7,0.2,0.9,0.6c0.2,0.4,0.1,0.8-0.2,1.1l-20,23C26.3,24.9,26,25,25.7,25z M4.9,23h20.3L43.5,2H23.2L4.9,23z"/>
</g>
</svg>
