<?xml version="1.0" encoding="utf-8"?>
<!-- Generator: Adobe Illustrator 21.1.0, SVG Export Plug-In . SVG Version: 6.00 Build 0)  -->
<svg version="1.1" id="Слой_1" xmlns="http://www.w3.org/2000/svg" xmlns:xlink="http://www.w3.org/1999/xlink" x="0px" y="0px"
	 viewBox="0 0 125.5 125.5" style="enable-background:new 0 0 125.5 125.5;" xml:space="preserve">
<style type="text/css">
	.st0{fill:#F0F7FD;}
	.st1{fill:#0082C2;}
</style>
<path class="st0" d="M125.5,62.7c0,34.7-28.1,62.7-62.7,62.7C28.1,125.5,0,97.4,0,62.7C0,28.1,28.1,0,62.7,0
	C97.4,0,125.5,28.1,125.5,62.7"/>
<path class="st1" d="M37.9,77.8l1.6-3.3H43l1.6,4.9h9.9l1.6-4.9h13.1l1.6,4.9h9.9l1.6-4.9h3.4l1.6,3.3h15.1V59.9
	c0-3.3-1.3-6.4-3.6-8.8c-2.3-2.3-5.5-3.6-8.8-3.6H35.3c-3.3,0-6.4,1.3-8.8,3.6c-2.3,2.3-3.6,5.5-3.6,8.8v17.9H37.9z M52.8,77.2h-6.6
	l-0.9-2.6h8.3L52.8,77.2z M79.2,77.2h-6.6l-0.9-2.6h8.3L79.2,77.2z M89,75.5l-1.6-3.3H38.1l-1.6,3.3H25.2v-5.9h75v5.9H89z
	 M25.2,59.9c0-2.7,1-5.2,3-7.1c1.9-1.9,4.4-3,7.1-3l54.9,0c2.7,0,5.2,1,7.1,3c1.9,1.9,3,4.4,3,7.1v7.3h-75V59.9z"/>
<path class="st1" d="M35.6,64.9c4.2,0,7.6-2.8,7.6-6.3c0-1.7-0.8-3.3-2.3-4.5c-1.4-1.1-3.3-1.8-5.3-1.8c-2,0-3.9,0.6-5.3,1.8
	c-0.2,0.2-0.4,0.3-0.6,0.5c-1.1,1.1-1.7,2.5-1.7,4c0,1.7,0.8,3.3,2.3,4.5C31.7,64.2,33.6,64.9,35.6,64.9 M30.3,58.6
	c0-2.2,2.4-4,5.3-4c2.9,0,5.3,1.8,5.3,4c0,0.9-0.4,1.7-1.1,2.4c-1,1-2.5,1.6-4.2,1.6C32.7,62.5,30.3,60.8,30.3,58.6"/>
<path class="st1" d="M46.8,63.8h32v-3.8c0-1.8-0.7-3.5-2-4.8c-1.3-1.3-3-2-4.8-2H53.5c-1.8,0-3.5,0.7-4.8,2c-1.3,1.3-2,3-2,4.8V63.8
	z M59,55.6h7.6v5.9H59V55.6z M75.1,56.9c0.8,0.8,1.3,2,1.3,3.2v1.4h-7.6v-5.9h3.1C73.1,55.6,74.2,56.1,75.1,56.9 M49.1,60.1
	c0-2.4,2.1-4.5,4.5-4.5h3.1v5.9h-7.5V60.1z"/>
</svg>
