<?xml version="1.0" encoding="utf-8"?>
<!-- Generator: Adobe Illustrator 21.1.0, SVG Export Plug-In . SVG Version: 6.00 Build 0)  -->
<svg version="1.1" id="icons" xmlns="http://www.w3.org/2000/svg" xmlns:xlink="http://www.w3.org/1999/xlink" x="0px" y="0px"
	 viewBox="0 0 48 52" style="enable-background:new 0 0 48 52;" xml:space="preserve">
<style type="text/css">
	.st0{fill:#4395B4;}
</style>
<g>
	<rect x="13" y="45" class="st0" width="8" height="2"/>
	<rect x="13" y="50" class="st0" width="8" height="2"/>
	<rect x="0.2" y="40" class="st0" width="48" height="2"/>
	<rect x="27" y="45" class="st0" width="10" height="2"/>
	<rect x="27" y="50" class="st0" width="10" height="2"/>
	<path class="st0" d="M13.5,35.4c0.2,0.2,0.4,0.3,0.7,0.3c0,0,0,0,0,0c0.3,0,0.5-0.1,0.7-0.3l10.2-11l2.1,1.9
		c1.6,1.5,3.7,2.2,5.8,2.2c2.3,0,4.6-0.9,6.3-2.7c3.2-3.4,2.9-8.8-0.5-12L26.9,2.9C23.4-0.2,18,0,14.9,3.4c-3.2,3.4-2.9,8.8,0.5,12
		l2.1,1.9l-10.2,11c-0.4,0.4-0.3,1,0.1,1.4L13.5,35.4z M16.3,4.8c1.3-1.4,3-2.1,4.8-2.1c1.6,0,3.2,0.6,4.4,1.7l11.8,10.8
		c2.6,2.4,2.8,6.5,0.4,9.2c-2.4,2.6-6.5,2.8-9.2,0.4L16.7,14C14.1,11.6,13.9,7.4,16.3,4.8z M19,18.8l4.6,4.2l-9.5,10.3l-4.6-4.2
		L19,18.8z"/>
</g>
</svg>
