<?xml version="1.0" encoding="utf-8"?>
<!-- Generator: Adobe Illustrator 21.1.0, SVG Export Plug-In . SVG Version: 6.00 Build 0)  -->
<svg version="1.1" id="icons" xmlns="http://www.w3.org/2000/svg" xmlns:xlink="http://www.w3.org/1999/xlink" x="0px" y="0px"
	 viewBox="0 0 48.1 31" style="enable-background:new 0 0 48.1 31;" xml:space="preserve">
<style type="text/css">
	.st0{fill:#4395B4;}
</style>
<g>
	<rect x="0.1" y="19" class="st0" width="48" height="2"/>
</g>
<g>
	<g>
		<rect x="12.1" y="24" class="st0" width="8" height="2"/>
	</g>
	<g>
		<rect x="12.1" y="29" class="st0" width="8" height="2"/>
	</g>
	<g>
		<rect x="26.1" y="24" class="st0" width="10" height="2"/>
	</g>
	<g>
		<rect x="26.1" y="29" class="st0" width="10" height="2"/>
	</g>
</g>
<g>
	<g>
		<rect x="4.6" y="12" class="st0" width="3" height="2"/>
	</g>
	<g>
		<rect x="10.6" y="14" class="st0" width="3" height="2"/>
	</g>
	<g>
		<rect x="16.6" y="12" class="st0" width="3" height="2"/>
	</g>
	<g>
		<rect x="22.6" y="14" class="st0" width="3" height="2"/>
	</g>
	<g>
		<rect x="28.6" y="12" class="st0" width="3" height="2"/>
	</g>
	<g>
		<rect x="34.6" y="14" class="st0" width="3" height="2"/>
	</g>
	<g>
		<rect x="40.6" y="12" class="st0" width="3" height="2"/>
	</g>
</g>
<g>
	<g>
		<rect x="4.6" y="6" class="st0" width="3" height="2"/>
	</g>
	<g>
		<rect x="10.6" y="8" class="st0" width="3" height="2"/>
	</g>
	<g>
		<rect x="16.6" y="6" class="st0" width="3" height="2"/>
	</g>
	<g>
		<rect x="22.6" y="8" class="st0" width="3" height="2"/>
	</g>
	<g>
		<rect x="28.6" y="6" class="st0" width="3" height="2"/>
	</g>
	<g>
		<rect x="34.6" y="8" class="st0" width="3" height="2"/>
	</g>
	<g>
		<rect x="40.6" y="6" class="st0" width="3" height="2"/>
	</g>
</g>
<g>
	<g>
		<rect x="4.6" class="st0" width="3" height="2"/>
	</g>
	<g>
		<rect x="10.6" y="2" class="st0" width="3" height="2"/>
	</g>
	<g>
		<rect x="16.6" class="st0" width="3" height="2"/>
	</g>
	<g>
		<rect x="22.6" y="2" class="st0" width="3" height="2"/>
	</g>
	<g>
		<rect x="28.6" class="st0" width="3" height="2"/>
	</g>
	<g>
		<rect x="34.6" y="2" class="st0" width="3" height="2"/>
	</g>
	<g>
		<rect x="40.6" class="st0" width="3" height="2"/>
	</g>
</g>
</svg>
