<?xml version="1.0" encoding="utf-8"?>
<!-- Generator: Adobe Illustrator 21.1.0, SVG Export Plug-In . SVG Version: 6.00 Build 0)  -->
<svg version="1.1" id="Слой_1" xmlns="http://www.w3.org/2000/svg" xmlns:xlink="http://www.w3.org/1999/xlink" x="0px" y="0px"
	 viewBox="0 0 125.5 125.5" style="enable-background:new 0 0 125.5 125.5;" xml:space="preserve">
<style type="text/css">
	.st0{fill:#F0F7FD;}
	.st1{fill:#0082C2;}
</style>
<path class="st0" d="M125.5,62.7c0,34.7-28.1,62.7-62.7,62.7C28.1,125.5,0,97.4,0,62.7C0,28.1,28.1,0,62.8,0
	C97.4,0,125.5,28.1,125.5,62.7"/>
<path class="st1" d="M61.6,63.7c-0.6,0.2-1.3,0.4-1.9,0.5c0-0.2,0-0.4-0.1-0.6c2.2-1.3,3.6-2.8,3.8-4.3c0.2-1.3-0.3-2.5-1.4-3.7
	c-2.3-2.3-7.1-2.9-10-2.1c-1.9,0.5-2.5,1.5-2.6,2.3c-0.2,1.1,0.3,2.3,1.7,3.4c0.5,0.4,0.9,0.9,1.3,1.4c-0.2,0.1-0.3,0.2-0.4,0.4
	c-2.3-1.3-4.2-1.7-5.6-1.2c-1.2,0.5-2,1.5-2.5,3.1c-0.9,3.1,0.9,7.6,3.2,9.7c1,1,1.9,1.3,2.6,1.3c0.3,0,0.5,0,0.7-0.1
	c1.1-0.3,1.8-1.4,2.1-3.2c0.1-0.7,0.3-1.3,0.5-1.8c0.2,0.1,0.3,0.2,0.5,0.2c0,2.6,0.6,4.5,1.8,5.5c0.7,0.5,1.5,0.8,2.4,0.8
	c0.5,0,1-0.1,1.5-0.2c3.2-0.8,6.1-4.6,6.8-7.6c0.5-1.9-0.1-2.9-0.7-3.4C64.6,63.1,63.3,63.1,61.6,63.7 M56.3,66.6
	c-0.1,0.1-0.2,0.1-0.3,0.2c-0.3,0.1-0.6,0.2-0.9,0.2c-0.7,0-1.3-0.3-1.8-0.7c-0.5-0.5-0.8-1.1-0.8-1.8c0-0.3,0.1-0.6,0.2-0.9
	c0.1-0.1,0.1-0.3,0.2-0.4c0.4-0.7,1.2-1.3,2.2-1.3c0.3,0,0.6,0.1,0.9,0.2c0.1,0,0.2,0.1,0.2,0.1c0.2,0.1,0.4,0.2,0.5,0.4
	c0.1,0.1,0.1,0.1,0.2,0.2c0.2,0.2,0.4,0.4,0.5,0.7c0,0,0,0,0,0c0.1,0.3,0.2,0.6,0.2,1c0,0.3-0.1,0.5-0.2,0.8c0,0.1-0.1,0.3-0.2,0.4
	c-0.1,0.1-0.2,0.3-0.3,0.4c-0.1,0.1-0.2,0.2-0.3,0.3C56.6,66.4,56.4,66.5,56.3,66.6 M54.6,59.8c-0.6-0.8-1.2-1.5-2.1-2.2
	c-0.9-0.8-1-1.2-1-1.3c0-0.1,0.4-0.4,1.1-0.7c2.3-0.7,6.2-0.1,7.9,1.5c1,1,0.9,1.6,0.8,1.8c-0.1,0.8-1,1.8-2.6,2.7
	c-0.1-0.1-0.1-0.1-0.2-0.2c-0.1-0.1-0.3-0.3-0.4-0.4c-0.1-0.1-0.2-0.2-0.3-0.3c-0.2-0.1-0.3-0.2-0.5-0.3c-0.1-0.1-0.2-0.1-0.4-0.2
	c-0.2-0.1-0.4-0.2-0.6-0.2c-0.1,0-0.2-0.1-0.3-0.1c-0.3-0.1-0.7-0.1-1-0.1C54.9,59.7,54.8,59.7,54.6,59.8 M50.4,70.1
	c-0.2,1.2-0.6,1.5-0.7,1.5c-0.1,0.1-0.6-0.1-1.1-0.6c-1.7-1.6-3.2-5.3-2.6-7.6c0.4-1.3,1-1.6,1.2-1.6c0.2-0.1,0.4-0.1,0.7-0.1
	c0.8,0,1.8,0.3,2.9,1c-0.1,0.3-0.2,0.6-0.3,0.9c-0.1,0.3-0.1,0.6-0.1,0.9c0,0.5,0.1,0.9,0.2,1.3c0,0.1,0.1,0.2,0.1,0.3
	c0.1,0.4,0.3,0.8,0.6,1.1c0,0,0,0,0,0.1C50.9,68.1,50.6,69,50.4,70.1 M64,66.8c-0.6,2.3-3,5.5-5.3,6c-1.3,0.3-1.8-0.1-2-0.2
	c-0.7-0.5-1-1.8-1.1-3.6c0,0,0.1,0,0.1,0c0.3-0.1,0.6-0.1,0.9-0.2c0,0,0.1,0,0.1,0c0.3-0.1,0.7-0.3,0.9-0.5c0.1-0.1,0.1-0.1,0.2-0.2
	c0.2-0.2,0.4-0.4,0.6-0.6c0.1-0.1,0.1-0.1,0.2-0.2c0.2-0.3,0.4-0.6,0.6-0.9c1-0.1,1.9-0.3,3-0.7c1.1-0.4,1.6-0.3,1.7-0.2
	C64.1,65.6,64.2,66,64,66.8"/>
<path class="st1" d="M55.1,48.3c-9,0-16.2,7.3-16.2,16.2s7.3,16.2,16.2,16.2c9,0,16.2-7.3,16.2-16.2S64.1,48.3,55.1,48.3 M55.1,78.6
	c-7.8,0-14.1-6.3-14.1-14.1s6.3-14.1,14.1-14.1c7.8,0,14.1,6.3,14.1,14.1S62.9,78.6,55.1,78.6"/>
<path class="st1" d="M84.2,41.2H41.3c-4,0-7.2,3.2-7.2,7.2v30.7c0,4,3.2,7.2,7.2,7.2h42.9c4,0,7.2-3.2,7.2-7.2V48.4
	C91.4,44.4,88.2,41.2,84.2,41.2 M89.3,79.1c0,2.8-2.3,5.1-5.1,5.1H41.3c-2.8,0-5.1-2.3-5.1-5.1V48.4c0-2.8,2.3-5.1,5.1-5.1h42.9
	c2.8,0,5.1,2.3,5.1,5.1V79.1z"/>
</svg>
