<?xml version="1.0" encoding="utf-8"?>
<!-- Generator: Adobe Illustrator 21.1.0, SVG Export Plug-In . SVG Version: 6.00 Build 0)  -->
<svg version="1.1" id="Слой_1" xmlns="http://www.w3.org/2000/svg" xmlns:xlink="http://www.w3.org/1999/xlink" x="0px" y="0px"
	 viewBox="0 0 125.5 125.5" style="enable-background:new 0 0 125.5 125.5;" xml:space="preserve">
<style type="text/css">
	.st0{fill:#F1F6FC;}
	.st1{fill:#4980BD;}
</style>
<path class="st0" d="M125.5,63.1c0,34.7-28.1,62.7-62.7,62.7C28.1,125.8,0,97.7,0,63.1C0,28.4,28.1,0.4,62.7,0.4
	C97.4,0.4,125.5,28.4,125.5,63.1"/>
<path class="st1" d="M58.7,76.7c-0.6-3.7-3.8-6.5-7.5-6.5h0l-3.1,0c1-2.4,1.5-4.9,1.5-7.5c0-0.4,0-0.8,0-1.2c1,0.3,2,0.8,2.9,1.5
	c2.4,1.7,6.6,3.6,13.4,3.6c6.9,0,12.5-1.9,17.4-3.6l2.2-0.7c8-2.8,16.6-2.4,24.4,1.1c1.6,0.7,3.1,1.6,4.5,2.6l0.4,0.3l1-1.4
	l-0.4-0.3c-1.5-1-3.1-2-4.8-2.7l0,0c-8.1-3.7-17.2-4.1-25.7-1.2l-2.2,0.7c-4.7,1.7-10.1,3.5-16.8,3.5c-6.6,0-10.4-1.8-12.4-3.3
	c-1.2-0.9-2.7-1.5-4.2-1.9c-0.6-4.1-2.6-7.9-5.5-10.8c-0.1-0.1-0.2-0.2-0.3-0.3c15.7-1.2,44.3-2.1,71,4.5l0.5,0.1l0.5-2L115,51
	c-28-6.8-57.9-5.7-73.8-4.3l-0.2-0.2c-9-6.1-21.3-3.8-27.5,5.2c-6.1,9-3.8,21.3,5.2,27.5c3.3,2.2,7.1,3.4,11.1,3.4
	c5.3,0,10.3-2.1,14-5.8c1.3-1.3,2.5-2.8,3.4-4.5l4-0.1h0c2.7,0,5.1,2,5.5,4.7l1.9,14.2l2-0.3L58.7,76.7L58.7,76.7z M46,70.4l-0.5,1
	c-0.8,1.5-1.9,2.9-3.1,4.1c-6.1,6.1-15.7,7-22.8,2.1C11.5,72.1,9.4,60.9,15,52.7c3.3-4.9,8.9-7.8,14.8-7.8c3.6,0,7.1,1.1,10.1,3.1
	l1.2,0.9c0.5,0.4,1,0.8,1.4,1.3c2.7,2.7,4.5,6.2,5,9.9l0.1,0.8c0.1,0.6,0.1,1.3,0.1,2C47.7,65.4,47.1,68.1,46,70.4"/>
<path class="st1" d="M33,68.9c-0.7,0.3-1.4,0.5-2.2,0.5h-2c-0.8,0-1.5-0.2-2.2-0.5l-0.6-0.3l-5.5,6.4l0.9,0.6
	c2.5,1.7,5.5,2.6,8.5,2.6h0h0c3,0,5.9-0.9,8.4-2.6l0.9-0.6l-5.5-6.4L33,68.9z M29.8,76.4c-2.3,0-4.6-0.6-6.6-1.7l3.2-3.7
	c0.8,0.3,1.6,0.4,2.4,0.4h2c0.8,0,1.6-0.1,2.4-0.4l3.2,3.7C34.3,75.8,32.1,76.4,29.8,76.4"/>
<path class="st1" d="M24,66.2c-0.1-0.3-0.2-0.6-0.3-0.9l-0.3-2.6h-9.1l0.1,1c0.2,3.2,1.3,6.3,3.4,8.8l0.7,0.9l5.7-6.7L24,66.2z
	 M18.6,70.4c-1.2-1.7-1.9-3.7-2.2-5.8h5.4l0.1,1c0,0.2,0.1,0.5,0.2,0.7L18.6,70.4z"/>
<path class="st1" d="M29.8,59.5c-1.5,0-2.7,1.2-2.7,2.7s1.2,2.7,2.7,2.7c1.5,0,2.7-1.2,2.7-2.7S31.3,59.5,29.8,59.5 M29.8,63.1
	c-0.5,0-0.9-0.4-0.9-0.9s0.4-0.9,0.9-0.9c0.5,0,0.9,0.4,0.9,0.9S30.3,63.1,29.8,63.1"/>
<path class="st1" d="M35.8,65.2c-0.1,0.3-0.1,0.6-0.3,0.9l-0.2,0.5l5.7,6.7l0.7-0.9c2-2.5,3.2-5.6,3.4-8.8l0.1-1h-9L35.8,65.2z
	 M37.6,65.5l0.2-1h5.4c-0.3,2.1-1,4.1-2.2,5.9l-3.6-4.2C37.5,66,37.5,65.8,37.6,65.5"/>
<path class="st1" d="M23.1,59.6c0.5-1.9,2.2-3.2,4.2-3.4c0.8-0.2,1.7-0.2,2.6-0.2c0.8,0,1.7,0,2.6,0.2c1.9,0.2,3.5,1.5,4,3.3
	l0.2,0.7H45l-0.3-1.2c-1.7-6.8-7.9-11.6-14.9-11.6c-7.1,0-13.2,4.8-14.9,11.6l-0.3,1.2h8.3L23.1,59.6z M17,58.4
	c1.9-5.4,7-9.1,12.8-9.1c5.7,0,10.9,3.7,12.8,9.1H38c-0.9-2.2-3-3.8-5.4-4c-1-0.2-2-0.3-2.9-0.2c-1-0.1-2,0-2.9,0.2
	c-2.5,0.2-4.5,1.8-5.4,4H17z"/>
</svg>
