<?xml version="1.0" encoding="utf-8"?>
<!-- Generator: Adobe Illustrator 21.1.0, SVG Export Plug-In . SVG Version: 6.00 Build 0)  -->
<svg version="1.1" id="Слой_1" xmlns="http://www.w3.org/2000/svg" xmlns:xlink="http://www.w3.org/1999/xlink" x="0px" y="0px"
	 viewBox="0 0 252.9 252.9" style="enable-background:new 0 0 252.9 252.9;" xml:space="preserve">
<style type="text/css">
	.st0{fill:#F0F7FD;}
	.st1{fill:#0082C2;}
</style>
<path class="st0" d="M252.9,126.4c0,69.8-56.6,126.4-126.4,126.4C56.6,252.9,0,196.3,0,126.4S56.6,0,126.4,0
	C196.3,0,252.9,56.6,252.9,126.4"/>
<path class="st1" d="M185.4,151.3l0.1-0.2l0.2,0c0.3,0,0.5-0.1,0.7-0.3l13.1-7.9c0.7-0.4,1.1-1.1,1.1-1.9v-23.6
	c0-0.2-0.1-0.5-0.2-0.8c0-0.1-0.1-0.1-0.1-0.2l0-0.1l-7.3-12.1l2.1-4.2c0.5-1.1,0.1-2.4-1-3c-0.2-0.1-0.4-0.2-0.6-0.2l-19.9-3.3
	c-7.7-1.3-15.5-1.9-23.2-1.9c-23.6,0-47.2,5.8-68.1,16.9l-7.8,4.2l-11.8,2.6c-7.9,1.7-14.6,6.9-18.2,14.2c-0.2,0.3-0.2,0.6-0.2,1
	V149c0,1.2,1,2.2,2.2,2.2h12.9l0.1,0.2c2,3.5,5.3,6.1,9.2,7.1c3.9,1.1,8,0.5,11.6-1.5c2.3-1.3,4.3-3.3,5.6-5.6l0.1-0.2h72.9l0.1,0.2
	c4.2,7.3,13.5,9.8,20.8,5.6C182.1,155.7,184.1,153.7,185.4,151.3 M196.2,125.8H189l-4.5-6.1h11.7V125.8z M142.6,96.5l0.3,0
	c10-0.5,20.1,0,29.9,1.6l2.2,0.4l-14.3,14.3h-20.5L142.6,96.5z M85.6,111.9c16.3-8.4,33.8-13.5,52-15.1l0.5,0l-2.3,16H84.1
	L85.6,111.9z M82.6,148.1L82.6,148.1c-1.8,4.1-5.8,6.5-10,6.5c-1.5,0-2.9-0.3-4.4-0.9c-2.7-1.2-4.7-3.3-5.8-6
	c-1.1-2.7-1-5.7,0.2-8.3c2.4-5.5,8.8-8,14.3-5.6c3.9,1.7,6.5,5.6,6.5,10C83.6,145.2,83.2,146.7,82.6,148.1 M131,146.8H87.8v-0.4
	c0-0.1,0-0.2,0-0.4c0.1-0.7,0.2-1.5,0.2-2.3c0-8.4-6.9-15.3-15.3-15.3c-8.4,0-15.3,6.9-15.3,15.3c0,0.7,0.1,1.5,0.2,2.3
	c0,0.1,0,0.1,0,0.2l0.1,0.5l-0.5,0.1h-8.5v-11.3h4.1c0.6,0,1.2-0.5,1.2-1.2v-2.1c0-0.6-0.5-1.2-1.2-1.2h-4l0.4-0.6
	c3.1-5.4,8.4-9.3,14.5-10.7l11.9-2.6l59.7,0L131,146.8z M156.9,143.7c0,0.8,0.1,1.5,0.2,2.3c0,0.1,0,0.1,0,0.2l0.1,0.5l-0.5,0.1
	h-21.3l4.2-29.6h22c0.6,0,1.1-0.2,1.6-0.6l17.2-17.2l9.4,1.6l-1.3,2.6c-0.3,0.7-0.3,1.5,0.1,2.1l5.9,9.8H180c-1.2,0-2.2,1-2.2,2.2
	c0,0.5,0.2,0.9,0.4,1.3l7.9,10.5c0.4,0.6,1.1,0.9,1.8,0.9h8.3v9.6l-8.7,5.2v-0.7c0-0.1,0-0.2,0-0.3l0-0.3c0-8.4-6.9-15.3-15.3-15.3
	C163.8,128.4,156.9,135.3,156.9,143.7 M172.2,154.6c-1.5,0-2.9-0.3-4.4-0.9c-2.7-1.2-4.7-3.3-5.8-6c-1.1-2.7-1-5.7,0.2-8.3
	c1.2-2.7,3.3-4.7,6-5.7c2.7-1.1,5.7-1,8.3,0.2c3.9,1.7,6.5,5.6,6.5,10c0,1.5-0.3,3-0.9,4.4C180.4,152.1,176.4,154.6,172.2,154.6"/>
<path class="st1" d="M112.4,124.3v2.1c0,0.6,0.5,1.2,1.1,1.2h7.4c0.6,0,1.2-0.5,1.2-1.2v-2.1c0-0.6-0.5-1.1-1.2-1.1h-7.4
	C112.9,123.2,112.4,123.7,112.4,124.3"/>
</svg>
