<?xml version="1.0" encoding="utf-8"?>
<!-- Generator: Adobe Illustrator 21.1.0, SVG Export Plug-In . SVG Version: 6.00 Build 0)  -->
<svg version="1.1" id="icons" xmlns="http://www.w3.org/2000/svg" xmlns:xlink="http://www.w3.org/1999/xlink" x="0px" y="0px"
	 viewBox="0 0 48 38" style="enable-background:new 0 0 48 38;" xml:space="preserve">
<style type="text/css">
	.st0{fill:#4395B4;}
</style>
<g>
	<g>
		<path class="st0" d="M4,22h5.1c0,0.6,0.4,1,1,1s1-0.4,1-1c0-7.2,5.8-13,12.9-13C31.2,9,37,14.8,37,22c0,0.6,0.4,1,1,1s1-0.4,1-1h5
			c0.6,0,1-0.4,1-1s-0.4-1-1-1h-5.1c-0.2-1.2-0.5-2.4-0.9-3.6l5-2.1c0.5-0.2,0.8-0.8,0.5-1.3s-0.8-0.8-1.3-0.5L37,14.6
			c-0.6-1.1-1.3-2-2.2-2.9l4-4c0.4-0.4,0.4-1,0-1.4c-0.4-0.4-1-0.4-1.4,0l-4.1,4.1c-1-0.8-2.2-1.5-3.4-2.1L32.6,3
			c0.2-0.5,0.1-1.1-0.4-1.3c-0.5-0.3-1.1-0.1-1.3,0.4l-2.7,5.4c0,0,0,0,0,0c-1-0.3-2-0.5-3.1-0.5V1c0-0.6-0.4-1-1-1s-1,0.4-1,1v6.1
			c-1.1,0.1-2.1,0.3-3.1,0.6c0,0,0,0,0,0l-2.6-5.4c-0.2-0.5-0.8-0.7-1.3-0.5c-0.5,0.2-0.7,0.8-0.5,1.3L18,8.3
			c-1.2,0.5-2.3,1.2-3.3,2l-4-4c-0.4-0.4-1-0.4-1.4,0s-0.4,1,0,1.4l3.9,3.9c-0.8,0.9-1.6,1.9-2.2,2.9L6,12.5c-0.5-0.2-1.1,0-1.3,0.5
			c-0.2,0.5,0,1.1,0.5,1.3l5,2.1c-0.5,1.1-0.8,2.3-0.9,3.6H4c-0.6,0-1,0.4-1,1S3.4,22,4,22z"/>
		<rect y="26" class="st0" width="48" height="2"/>
		<rect x="12" y="31" class="st0" width="8" height="2"/>
		<rect x="12" y="36" class="st0" width="8" height="2"/>
		<rect x="26" y="31" class="st0" width="10" height="2"/>
		<rect x="26" y="36" class="st0" width="10" height="2"/>
	</g>
</g>
</svg>
