<?xml version="1.0" encoding="utf-8"?>
<!-- Generator: Adobe Illustrator 21.1.0, SVG Export Plug-In . SVG Version: 6.00 Build 0)  -->
<svg version="1.1" id="icons" xmlns="http://www.w3.org/2000/svg" xmlns:xlink="http://www.w3.org/1999/xlink" x="0px" y="0px"
	 viewBox="0 0 48.1 57.6" style="enable-background:new 0 0 48.1 57.6;" xml:space="preserve">
<style type="text/css">
	.st0{fill:#4395B4;}
</style>
<g>
	<rect x="-0.1" y="45.6" class="st0" width="48" height="2"/>
</g>
<g>
	<g>
		<rect x="11.9" y="50.6" class="st0" width="8" height="2"/>
	</g>
	<g>
		<rect x="11.9" y="55.6" class="st0" width="8" height="2"/>
	</g>
	<g>
		<rect x="25.9" y="50.6" class="st0" width="10" height="2"/>
	</g>
	<g>
		<rect x="25.9" y="55.6" class="st0" width="10" height="2"/>
	</g>
</g>
<g>
	<path class="st0" d="M24.2,40.7c-6.6,0-14.8-6.5-14.8-14.1c0-8,2.3-12.1,4-15.1C14.3,10,15,8.9,15,7.8c0-0.5,0.3-0.9,0.8-1
		c0.5-0.1,0.9,0.2,1.1,0.6c0.3,0.7,0.6,1.6,0.9,2.7c0.6,1.7,1.3,4,2.1,5.6c1.5-3.2,2.2-7.7,2.8-11.2c0.2-1.1,0.3-2.1,0.5-3
		c0.1-0.5,0.5-0.8,1-0.8l0,0c0.5,0,0.9,0.3,1,0.8c0.2,1,0.3,2.1,0.5,3.1c0.3,2.6,0.7,5.2,2.2,7.6c0.4,0.6,1.1,2.1,2.2,4.3
		c0.3,0.6,0.6,1.2,0.9,1.8c0.6-1.9,1.2-4.7,1.6-6.8c0.1-0.5,0.5-0.8,1-0.8s0.9,0.3,1,0.8c0.2,0.9,0.6,2.2,1.2,3.8
		c1.2,3.4,2.8,8.1,2.8,12.4C38.4,35.3,30.9,40.7,24.2,40.7z M16,11c-0.2,0.5-0.5,1-0.8,1.5c-1.6,2.8-3.8,6.7-3.8,14.1
		c0,6.5,7,12.1,12.8,12.1c5.8,0,12.2-4.7,12.2-11.1c0-3.9-1.6-8.4-2.7-11.7c0-0.1-0.1-0.2-0.1-0.3c-0.5,2.2-1.2,4.7-1.8,5.6
		c-0.2,0.3-0.5,0.4-0.8,0.4c0,0,0,0,0,0c-0.3,0-0.7-0.2-0.8-0.5c-0.3-0.5-1.1-2.1-1.9-3.9c-0.8-1.7-1.8-3.6-2.1-4.1
		c-1.1-1.7-1.7-3.5-2-5.2c-0.7,3.7-1.6,7.6-3.3,10.2c-0.2,0.3-0.5,0.4-0.8,0.5c-0.3,0-0.6-0.1-0.8-0.4C17.9,16.7,16.9,13.6,16,11z"
		/>
</g>
</svg>
