<?xml version="1.0" encoding="utf-8"?>
<!-- Generator: Adobe Illustrator 21.1.0, SVG Export Plug-In . SVG Version: 6.00 Build 0)  -->
<svg version="1.1" id="icons" xmlns="http://www.w3.org/2000/svg" xmlns:xlink="http://www.w3.org/1999/xlink" x="0px" y="0px"
	 viewBox="0 0 46 48" style="enable-background:new 0 0 46 48;" xml:space="preserve">
<style type="text/css">
	.st0{fill:#4395B4;}
</style>
<g>
	<g>
		<g>
			<g>
				<path class="st0" d="M23,18c-0.6,0-1-0.4-1-1V1c0-0.6,0.4-1,1-1s1,0.4,1,1v16C24,17.6,23.6,18,23,18z"/>
			</g>
			<g>
				<path class="st0" d="M23,10c-0.3,0-0.5-0.1-0.7-0.3l-4-4c-0.4-0.4-0.4-1,0-1.4s1-0.4,1.4,0L23,7.6l3.3-3.3c0.4-0.4,1-0.4,1.4,0
					s0.4,1,0,1.4l-4,4C23.5,9.9,23.3,10,23,10z"/>
			</g>
		</g>
		<g>
			<g>
				<path class="st0" d="M23,34c-0.6,0-1-0.4-1-1V17c0-0.6,0.4-1,1-1s1,0.4,1,1v16C24,33.6,23.6,34,23,34z"/>
			</g>
			<g>
				<path class="st0" d="M27,30c-0.3,0-0.5-0.1-0.7-0.3L23,26.4l-3.3,3.3c-0.4,0.4-1,0.4-1.4,0s-0.4-1,0-1.4l4-4
					c0.4-0.4,1-0.4,1.4,0l4,4c0.4,0.4,0.4,1,0,1.4C27.5,29.9,27.3,30,27,30z"/>
			</g>
		</g>
	</g>
	<g>
		<g>
			<g>
				<path class="st0" d="M23,18c-0.2,0-0.3,0-0.5-0.1l-13.9-8C8.2,9.6,8,9,8.3,8.5s0.9-0.6,1.4-0.4l13.9,8c0.5,0.3,0.6,0.9,0.4,1.4
					C23.7,17.8,23.3,18,23,18z"/>
			</g>
			<g>
				<path class="st0" d="M10.6,15.5c-0.4,0-0.8-0.3-1-0.7c-0.1-0.5,0.2-1.1,0.7-1.2l4.5-1.2l-1.2-4.5c-0.1-0.5,0.2-1.1,0.7-1.2
					c0.5-0.1,1.1,0.2,1.2,0.7l1.5,5.5c0.1,0.5-0.2,1.1-0.7,1.2l-5.5,1.5C10.8,15.5,10.7,15.5,10.6,15.5z"/>
			</g>
		</g>
		<g>
			<g>
				<path class="st0" d="M36.9,26c-0.2,0-0.3,0-0.5-0.1l-13.9-8c-0.5-0.3-0.6-0.9-0.4-1.4c0.3-0.5,0.9-0.6,1.4-0.4l13.9,8
					c0.5,0.3,0.6,0.9,0.4,1.4C37.5,25.8,37.2,26,36.9,26z"/>
			</g>
			<g>
				<path class="st0" d="M31.4,27.5c-0.4,0-0.8-0.3-1-0.7L29,21.3c-0.1-0.5,0.2-1.1,0.7-1.2l5.5-1.5c0.5-0.1,1.1,0.2,1.2,0.7
					c0.1,0.5-0.2,1.1-0.7,1.2l-4.5,1.2l1.2,4.5c0.1,0.5-0.2,1.1-0.7,1.2C31.6,27.5,31.5,27.5,31.4,27.5z"/>
			</g>
		</g>
	</g>
	<g>
		<g>
			<g>
				<path class="st0" d="M9.1,26c-0.3,0-0.7-0.2-0.9-0.5C8,25,8.2,24.4,8.6,24.1l13.9-8c0.5-0.3,1.1-0.1,1.4,0.4s0.1,1.1-0.4,1.4
					l-13.9,8C9.5,26,9.3,26,9.1,26z"/>
			</g>
			<g>
				<path class="st0" d="M14.6,27.5c-0.1,0-0.2,0-0.3,0c-0.5-0.1-0.9-0.7-0.7-1.2l1.2-4.5l-4.5-1.2c-0.5-0.1-0.9-0.7-0.7-1.2
					c0.1-0.5,0.7-0.8,1.2-0.7l5.5,1.5c0.5,0.1,0.9,0.7,0.7,1.2l-1.5,5.5C15.5,27.2,15.1,27.5,14.6,27.5z"/>
			</g>
		</g>
		<g>
			<g>
				<path class="st0" d="M23,18c-0.3,0-0.7-0.2-0.9-0.5c-0.3-0.5-0.1-1.1,0.4-1.4l13.9-8c0.5-0.3,1.1-0.1,1.4,0.4
					C38,9,37.8,9.6,37.4,9.9l-13.9,8C23.3,18,23.2,18,23,18z"/>
			</g>
			<g>
				<path class="st0" d="M35.4,15.5c-0.1,0-0.2,0-0.3,0L29.7,14c-0.5-0.1-0.8-0.7-0.7-1.2l1.5-5.5c0.1-0.5,0.7-0.8,1.2-0.7
					c0.5,0.1,0.8,0.7,0.7,1.2l-1.2,4.5l4.5,1.2c0.5,0.1,0.8,0.7,0.7,1.2C36.2,15.2,35.8,15.5,35.4,15.5z"/>
			</g>
		</g>
	</g>
	<g>
		<rect y="36" class="st0" width="46" height="2"/>
	</g>
	<g>
		<rect y="46" class="st0" width="46" height="2"/>
	</g>
	<g>
		<rect x="3" y="40" class="st0" width="3" height="2"/>
	</g>
	<g>
		<rect x="9" y="42" class="st0" width="3" height="2"/>
	</g>
	<g>
		<rect x="15" y="40" class="st0" width="3" height="2"/>
	</g>
	<g>
		<rect x="21" y="42" class="st0" width="3" height="2"/>
	</g>
	<g>
		<rect x="27" y="40" class="st0" width="3" height="2"/>
	</g>
	<g>
		<rect x="33" y="42" class="st0" width="3" height="2"/>
	</g>
	<g>
		<rect x="39" y="40" class="st0" width="3" height="2"/>
	</g>
</g>
</svg>
