<?xml version="1.0" encoding="utf-8"?>
<!-- Generator: Adobe Illustrator 21.1.0, SVG Export Plug-In . SVG Version: 6.00 Build 0)  -->
<svg version="1.1" id="Слой_1" xmlns="http://www.w3.org/2000/svg" xmlns:xlink="http://www.w3.org/1999/xlink" x="0px" y="0px"
	 viewBox="0 0 125.5 125.5" style="enable-background:new 0 0 125.5 125.5;" xml:space="preserve">
<style type="text/css">
	.st0{fill:#F0F7FD;}
	.st1{fill:#0082C2;}
</style>
<path class="st0" d="M125.5,62.7c0,34.7-28.1,62.7-62.7,62.7C28.1,125.5,0,97.4,0,62.7C0,28.1,28.1,0,62.7,0
	C97.4,0,125.5,28.1,125.5,62.7"/>
<path class="st1" d="M35,79.3c0,3.4,2.8,6.2,6.2,6.2h43.1c3.4,0,6.2-2.8,6.2-6.2V54.5c0-3.4-2.8-6.2-6.2-6.2h-29v-2.9l0.1,0
	c0.5-0.1,0.9-0.6,0.9-1.1v-4.8c0-0.6-0.5-1.1-1.1-1.1H41.5c-0.6,0-1.1,0.5-1.1,1.1v4.8c0,0.5,0.4,1,0.9,1.1l0.1,0v2.9h-0.1
	c-3.4,0-6.2,2.8-6.2,6.2V79.3z M42.7,40.6H54v2.5H42.7V40.6z M53,48.3h-9.4v-2.9H53V48.3z M37.3,54.5c0-2.1,1.7-3.9,3.9-3.9h43.1
	c2.1,0,3.9,1.7,3.9,3.9v24.9c0,2.1-1.7,3.9-3.9,3.9H41.2c-2.1,0-3.9-1.7-3.9-3.9V54.5z"/>
<path class="st1" d="M69.9,64.1c2.7,1,5.7,1,8.4,0c2.2-0.8,4.6-0.8,6.8,0c0.3,0.1,0.6,0.1,0.9,0c0.3-0.1,0.5-0.4,0.6-0.6
	c0.2-0.6-0.1-1.3-0.7-1.5c-2.7-1-5.7-1-8.4,0c-2.2,0.8-4.6,0.8-6.8,0c-2.7-1-5.7-1-8.4,0c-2.2,0.8-4.6,0.8-6.8,0c-2.7-1-5.7-1-8.4,0
	c-2.2,0.8-4.6,0.8-6.8,0c-0.1,0-0.3-0.1-0.4-0.1c-0.2,0-0.3,0-0.5,0.1c-0.3,0.1-0.5,0.4-0.6,0.6c-0.1,0.3-0.1,0.6,0,0.9
	c0.1,0.3,0.4,0.5,0.6,0.6c2.7,1,5.7,1,8.4,0c2.2-0.8,4.6-0.8,6.8,0c2.7,1,5.7,1,8.4,0C65.3,63.3,67.7,63.3,69.9,64.1"/>
</svg>
