<?xml version="1.0" encoding="utf-8"?>
<!-- Generator: Adobe Illustrator 21.1.0, SVG Export Plug-In . SVG Version: 6.00 Build 0)  -->
<svg version="1.1" id="icons" xmlns="http://www.w3.org/2000/svg" xmlns:xlink="http://www.w3.org/1999/xlink" x="0px" y="0px"
	 viewBox="0 0 48 46" style="enable-background:new 0 0 48 46;" xml:space="preserve">
<style type="text/css">
	.st0{fill:#0095B6;}
</style>
<g>
	<g>
		<rect y="44" class="st0" width="48" height="2"/>
	</g>
	<g>
		<path class="st0" d="M23,17c-3.9,0-7-3.1-7-7s3.1-7,7-7c3.9,0,7,3.1,7,7S26.9,17,23,17z M23,5c-2.8,0-5,2.2-5,5s2.2,5,5,5
			c2.8,0,5-2.2,5-5S25.8,5,23,5z"/>
	</g>
	<g>
		<rect x="22" class="st0" width="2" height="4"/>
	</g>
	<g>
		<rect x="22" y="16" class="st0" width="2" height="4"/>
	</g>
	<g>
		<rect x="29" y="9" class="st0" width="4" height="2"/>
	</g>
	<g>
		<rect x="13" y="9" class="st0" width="4" height="2"/>
	</g>
	<g>
		<rect x="27.7" y="13.7" transform="matrix(0.7072 -0.707 0.707 0.7072 -2.6786 24.8465)" class="st0" width="2" height="4"/>
	</g>
	<g>
		<rect x="16.3" y="2.3" transform="matrix(0.7071 -0.7071 0.7071 0.7071 2.0085 13.5359)" class="st0" width="2" height="4"/>
	</g>
	<g>
		<rect x="15.3" y="14.7" transform="matrix(0.7071 -0.7071 0.7071 0.7071 -5.9914 16.8495)" class="st0" width="4" height="2"/>
	</g>
	<g>
		<rect x="26.7" y="3.3" transform="matrix(0.7071 -0.7071 0.7071 0.7071 5.322 21.5356)" class="st0" width="4" height="2"/>
	</g>
	<g>
		<g>
			<path class="st0" d="M28,42c-0.3,0-0.5-0.1-0.7-0.3l-2-2l1.4-1.4l1.3,1.3l18.3-18.3l1.4,1.4l-19,19C28.5,41.9,28.3,42,28,42z"/>
		</g>
		<g>
			<path class="st0" d="M48,27h-2v-4h-4v-2h5c0.6,0,1,0.4,1,1V27z"/>
		</g>
		<g>
			<rect x="21.5" y="33.4" transform="matrix(0.707 -0.7072 0.7072 0.707 -18.5129 26.3111)" class="st0" width="2" height="4.2"/>
		</g>
		<g>
			
				<rect x="16.5" y="28.4" transform="matrix(0.7071 -0.7071 0.7071 0.7071 -16.4411 21.3076)" class="st0" width="2" height="4.2"/>
		</g>
		<g>
			
				<rect x="11.5" y="23.4" transform="matrix(0.7071 -0.7071 0.7071 0.7071 -14.3701 16.3076)" class="st0" width="2" height="4.2"/>
		</g>
	</g>
	<g>
		<g>
			<path class="st0" d="M18,42c-0.3,0-0.5-0.1-0.7-0.3l-2-2l1.4-1.4l1.3,1.3l18.3-18.3l1.4,1.4l-19,19C18.5,41.9,18.3,42,18,42z"/>
		</g>
		<g>
			<path class="st0" d="M38,27h-2v-4h-4v-2h5c0.6,0,1,0.4,1,1V27z"/>
		</g>
		<g>
			
				<rect x="11.5" y="33.4" transform="matrix(0.7071 -0.7071 0.7071 0.7071 -21.4411 19.2365)" class="st0" width="2" height="4.2"/>
		</g>
		<g>
			<rect x="6.5" y="28.4" transform="matrix(0.7071 -0.7071 0.7071 0.7071 -19.3701 14.2365)" class="st0" width="2" height="4.2"/>
		</g>
		<g>
			<rect x="1.5" y="23.4" transform="matrix(0.7071 -0.7071 0.7071 0.7071 -17.299 9.2365)" class="st0" width="2" height="4.2"/>
		</g>
	</g>
</g>
</svg>
