<?xml version="1.0" encoding="utf-8"?>
<!-- Generator: Adobe Illustrator 21.1.0, SVG Export Plug-In . SVG Version: 6.00 Build 0)  -->
<svg version="1.1" id="icons" xmlns="http://www.w3.org/2000/svg" xmlns:xlink="http://www.w3.org/1999/xlink" x="0px" y="0px"
	 viewBox="0 0 44.6 41" style="enable-background:new 0 0 44.6 41;" xml:space="preserve">
<style type="text/css">
	.st0{fill:#ED1C24;}
	.st1{fill:#22B573;}
	.st2{fill:#0071BC;}
</style>
<g>
	<path class="st0" d="M13.2,32.5c-0.3,0-0.6-0.1-0.8-0.4c-6.1-7.8-4.7-19.1,3.1-25.3c2.7-2.1,5.9-3.4,9.2-3.7c0.6-0.1,1,0.3,1.1,0.9
		c0.1,0.5-0.3,1-0.9,1.1c-3,0.3-5.8,1.5-8.2,3.3c-6.9,5.4-8.2,15.5-2.7,22.5c0.3,0.4,0.3,1.1-0.2,1.4C13.6,32.4,13.4,32.5,13.2,32.5
		z"/>
</g>
<g>
	<path class="st0" d="M23.4,10c-0.2,0-0.3,0-0.5-0.1c-0.5-0.3-0.7-0.9-0.4-1.3l2.3-4.4l-4.4-2.3C19.9,1.6,19.7,1,20,0.5
		C20.2,0,20.8-0.2,21.3,0l6.2,3.2l-3.2,6.2C24.1,9.8,23.8,10,23.4,10z"/>
</g>
<g>
	<path class="st1" d="M38.5,37.7c-0.1,0-0.3,0-0.4-0.1c-0.5-0.2-0.7-0.8-0.5-1.3c1.2-2.7,1.6-5.8,1.2-8.7c-0.6-4.2-2.8-8-6.2-10.5
		c-3.4-2.6-7.6-3.7-11.9-3c-0.5,0.1-1.1-0.3-1.1-0.8c-0.1-0.5,0.3-1.1,0.8-1.1c4.8-0.7,9.5,0.5,13.3,3.4c3.8,2.9,6.3,7.1,7,11.9
		c0.5,3.4,0,6.8-1.4,9.8C39.2,37.5,38.9,37.7,38.5,37.7z"/>
</g>
<g>
	<path class="st1" d="M37.8,39.6L34,33.7c-0.3-0.5-0.2-1.1,0.3-1.4c0.5-0.3,1.1-0.2,1.4,0.3l2.7,4.2l4.2-2.7
		c0.5-0.3,1.1-0.2,1.4,0.3c0.3,0.5,0.2,1.1-0.3,1.4L37.8,39.6z"/>
</g>
<g>
	<path class="st2" d="M16.6,40c-2.3,0-4.5-0.4-6.7-1.3C6.7,37.4,4,35.3,2,32.6c-0.3-0.4-0.2-1.1,0.2-1.4c0.4-0.3,1.1-0.2,1.4,0.2
		c1.8,2.4,4.2,4.3,7,5.4c4,1.6,8.3,1.6,12.2-0.1c3.9-1.7,7-4.8,8.6-8.7c0.2-0.5,0.8-0.8,1.3-0.6c0.5,0.2,0.8,0.8,0.6,1.3
		c-1.8,4.5-5.2,8-9.6,9.8C21.4,39.5,19,40,16.6,40z"/>
</g>
<g>
	<path class="st2" d="M2.1,37.9c-0.5,0-1-0.4-1-1l-0.3-7l7-0.3c0.6,0,1,0.4,1,1s-0.4,1-1,1l-5,0.2l0.2,5C3.1,37.4,2.7,37.9,2.1,37.9
		C2.1,37.9,2.1,37.9,2.1,37.9z"/>
</g>
</svg>
