<?xml version="1.0" encoding="utf-8"?>
<!-- Generator: Adobe Illustrator 21.1.0, SVG Export Plug-In . SVG Version: 6.00 Build 0)  -->
<svg version="1.1" id="icons" xmlns="http://www.w3.org/2000/svg" xmlns:xlink="http://www.w3.org/1999/xlink" x="0px" y="0px"
	 viewBox="0 0 47 42" style="enable-background:new 0 0 47 42;" xml:space="preserve">
<style type="text/css">
	.st0{fill:#4395B4;}
</style>
<g>
	<g>
		<path class="st0" d="M20.2,26c-0.2,0-0.4,0-0.5-0.1L0.3,13.9C0,13.7-0.2,13.4-0.2,13s0.2-0.7,0.5-0.9L19.7,0.3
			c0.4-0.2,0.8-0.2,1.1,0.1c0.1,0.1,11.3,8.5,19,6.8c0.3-0.1,0.7,0,0.9,0.3C41,7.7,41.1,8,41,8.3c-2.7,11.4-19.7,17.3-20.4,17.6
			C20.5,26,20.4,26,20.2,26z M2.7,13l17.6,10.8c2.5-0.9,15.1-6,18.2-14.5c-7.3,0.5-16.1-5.4-18.4-7L2.7,13z"/>
	</g>
	<g>
		<path class="st0" d="M26.2,42c-0.2,0-0.4,0-0.5-0.1L6.3,29.9C6,29.7,5.8,29.4,5.8,29s0.2-0.7,0.5-0.9l4.9-3l1,1.7L8.7,29
			l17.6,10.8c2.5-0.9,15.1-6,18.3-14.6c-1.8,0.1-3.9-0.1-6.2-0.8l0.6-1.9c2.6,0.8,4.9,1,6.8,0.5c0.3-0.1,0.7,0,0.9,0.3
			c0.2,0.2,0.3,0.6,0.3,0.9c-2.7,11.4-19.7,17.3-20.4,17.6C26.5,42,26.4,42,26.2,42z"/>
	</g>
	<g>
		<path class="st0" d="M23.2,34c-0.2,0-0.4,0-0.5-0.1L3.3,21.9C3,21.7,2.8,21.4,2.8,21s0.2-0.7,0.5-0.9l5-3l1,1.7L5.7,21l17.6,10.8
			c2.5-0.9,15.1-6,18.3-14.5c-1.8,0.1-3.9-0.1-6.1-0.8l0.6-1.9c2.6,0.8,4.9,0.9,6.8,0.5c0.3-0.1,0.7,0,0.9,0.3
			c0.2,0.2,0.3,0.6,0.3,0.9c-2.7,11.4-19.7,17.3-20.4,17.6C23.5,34,23.4,34,23.2,34z"/>
	</g>
</g>
</svg>
