<?xml version="1.0" encoding="utf-8"?>
<!-- Generator: Adobe Illustrator 21.1.0, SVG Export Plug-In . SVG Version: 6.00 Build 0)  -->
<svg version="1.1" id="Слой_1" xmlns="http://www.w3.org/2000/svg" xmlns:xlink="http://www.w3.org/1999/xlink" x="0px" y="0px"
	 viewBox="0 0 110.7 110.7" style="enable-background:new 0 0 110.7 110.7;" xml:space="preserve">
<style type="text/css">
	.st0{fill:#A4CAEA;}
	.st1{fill:#0082C2;}
	.st2{fill:#A3C9E9;}
</style>
<path class="st0" d="M110,55.3c0,29.9-24.3,54.2-54.2,54.2c-29.9,0-54.2-24.3-54.2-54.2S25.9,1.1,55.8,1.1
	C85.7,1.1,110,25.4,110,55.3"/>
<path class="st1" d="M70,26.8c-4.2,0-7.6,3.4-7.6,7.6S65.8,42,70,42c4.2,0,7.6-3.4,7.6-7.6S74.2,26.8,70,26.8"/>
<path class="st1" d="M38.8,77.3c0,4.2,3.4,7.6,7.6,7.6c4.2,0,7.6-3.4,7.6-7.6c0-4.2-3.4-7.6-7.6-7.6C42.2,69.7,38.8,73.1,38.8,77.3"
	/>
<path class="st1" d="M46.4,44.3c-2.6,0-4.8,2.1-4.8,4.8c0,2.6,2.1,4.8,4.8,4.8c2.6,0,4.8-2.1,4.8-4.8C51.2,46.4,49.1,44.3,46.4,44.3
	"/>
<path class="st1" d="M95.9,55.3c0-1.4-0.1-2.8-0.2-4.1l-17.2-9.9c-2,2.5-5.1,4.1-8.5,4.1c-3.1,0-5.9-1.3-7.9-3.4l-7.9,4.6
	c0.3,0.8,0.4,1.6,0.4,2.5c0,3.9-2.8,7.1-6.4,7.9v9.6c5.2,0.8,9.3,5.3,9.3,10.8c0,1.4-0.3,2.7-0.8,4l17.1,9.9
	C86.9,84.6,95.9,71,95.9,55.3"/>
<path class="st1" d="M22.4,33.2l18.1,10.4c1.5-1.7,3.6-2.7,6-2.7c2.4,0,4.5,1,6,2.7l7.7-4.4c-0.7-1.4-1.1-3.1-1.1-4.8
	c0-5.5,4-10,9.3-10.8v-6.4c-3.9-1.3-8.1-2-12.5-2C41.9,15.2,29.6,22.4,22.4,33.2"/>
<path class="st1" d="M29.3,85.3l7-4c-0.5-1.2-0.8-2.6-0.8-4c0-5.5,4-10,9.3-10.8v-9.6c-3.7-0.8-6.4-4-6.4-7.9c0-0.9,0.1-1.7,0.4-2.5
	L20.7,36.1c-3.1,5.7-4.9,12.3-4.9,19.2C15.7,67.2,21,78,29.3,85.3"/>
<path class="st1" d="M71.7,18.5v5.1c5.2,0.8,9.3,5.3,9.3,10.8c0,1.4-0.3,2.7-0.8,4L95,46.9C92.3,34.1,83.5,23.5,71.7,18.5"/>
<path class="st2" d="M95,46.9l-14.8-8.6c0.5-1.2,0.8-2.6,0.8-4c0-5.5-4-10-9.3-10.8v-5.1v-0.4c-1.1-0.5-2.2-0.9-3.3-1.2v0.3v6.4
	c-5.2,0.8-9.3,5.3-9.3,10.8c0,1.7,0.4,3.3,1.1,4.8l-7.7,4.4c-1.5-1.7-3.6-2.7-6-2.7c-2.4,0-4.5,1-6,2.7L22.4,33.2L22.1,33
	c-0.6,0.9-1.2,1.9-1.7,2.8l0.3,0.2l18.1,10.5c-0.3,0.8-0.4,1.6-0.4,2.5c0,3.9,2.8,7.1,6.4,7.9v9.6c-5.2,0.8-9.3,5.3-9.3,10.8
	c0,1.4,0.3,2.7,0.8,4l-7,4L29,85.5c0.9,0.8,1.8,1.5,2.8,2.3l0.3-0.2l5.9-3.4c2,2.5,5.1,4.1,8.5,4.1c3.4,0,6.5-1.6,8.5-4.1l15,8.6
	l0.4,0.2c1.3-0.5,2.5-1.1,3.8-1.7l-0.3-0.2l-17.1-9.9c0.5-1.2,0.8-2.6,0.8-4c0-5.5-4-10-9.3-10.8v-9.6c3.7-0.8,6.4-4,6.4-7.9
	c0-0.9-0.1-1.7-0.4-2.5l7.9-4.6c2,2.1,4.8,3.4,7.9,3.4c3.4,0,6.5-1.6,8.5-4.1l17.2,9.9l0.3,0.2c-0.1-1.4-0.3-2.8-0.6-4.2L95,46.9z
	 M54.1,77.3c0,4.2-3.4,7.6-7.6,7.6c-4.2,0-7.6-3.4-7.6-7.6c0-4.2,3.4-7.6,7.6-7.6C50.7,69.7,54.1,73.1,54.1,77.3 M46.4,53.8
	c-2.6,0-4.8-2.1-4.8-4.8c0-2.6,2.1-4.8,4.8-4.8c2.6,0,4.8,2.1,4.8,4.8C51.2,51.6,49.1,53.8,46.4,53.8 M70,42c-4.2,0-7.6-3.4-7.6-7.6
	c0-4.2,3.4-7.6,7.6-7.6c4.2,0,7.6,3.4,7.6,7.6C77.6,38.6,74.2,42,70,42"/>
</svg>
